<svg width="64" height="64" viewBox="0 0 64 64" fill="none" xmlns="http://www.w3.org/2000/svg">
<rect width="64" height="64" rx="10" fill="#152232"/>
<rect x="0.5" y="0.5" width="63" height="63" rx="9.5" stroke="#848EA0" stroke-opacity="0.2"/>
<g clip-path="url(#clip0_43_2)">
<path d="M31.4791 46.4118L24.3412 47.0304L24.9598 39.8925L39.8067 25.1408C40.0283 24.9142 40.2929 24.7341 40.5851 24.6112C40.8772 24.4882 41.1909 24.4249 41.5079 24.4249C41.8249 24.4249 42.1386 24.4882 42.4307 24.6112C42.7229 24.7341 42.9875 24.9142 43.2091 25.1408L46.2308 28.1863C46.4538 28.4075 46.6308 28.6706 46.7516 28.9606C46.8724 29.2505 46.9346 29.5615 46.9346 29.8756C46.9346 30.1897 46.8724 30.5007 46.7516 30.7906C46.6308 31.0806 46.4538 31.3437 46.2308 31.5649L31.4791 46.4118ZM17.0034 24.4508C16.1682 24.3056 16.1682 23.1065 17.0034 22.9613C18.4816 22.7028 19.8495 22.0105 20.9333 20.9725C22.017 19.9345 22.7676 18.5977 23.0897 17.132L23.1396 16.9012C23.3205 16.078 24.4958 16.0708 24.6862 16.8965L24.7457 17.163C25.0774 18.6231 25.8336 19.9524 26.9192 20.9838C28.0047 22.0151 29.371 22.7023 30.8462 22.959C31.6861 23.1017 31.6861 24.308 30.8462 24.4555C29.3709 24.7116 28.0043 25.3982 26.9183 26.4291C25.8324 27.4601 25.0756 28.7892 24.7433 30.2492L24.6814 30.518C24.4935 31.3413 23.3181 31.3365 23.1372 30.5109L23.0897 30.2801C22.7673 28.8138 22.016 27.4765 20.9313 26.4384C19.8467 25.4004 18.4777 24.7085 16.9986 24.4508H17.0034Z" stroke="#1BD1C2" stroke-width="2.37931" stroke-linecap="round" stroke-linejoin="round"/>
</g>
<defs>
<clipPath id="clip0_43_2">
<rect width="33.3103" height="33.3103" fill="white" transform="translate(15 15)"/>
</clipPath>
</defs>
</svg>
