<svg width="64" height="64" viewBox="0 0 64 64" fill="none" xmlns="http://www.w3.org/2000/svg">
<rect width="64" height="64" rx="10" fill="#152232"/>
<rect x="0.5" y="0.5" width="63" height="63" rx="9.5" stroke="#848EA0" stroke-opacity="0.2"/>
<g clip-path="url(#clip0_43_3)">
<path d="M22.138 37.684C20.906 37.4369 19.761 36.869 18.8188 36.0376C17.6875 35.0488 16.8747 33.7467 16.4833 32.2959C16.092 30.8452 16.1396 29.311 16.6202 27.8874C17.1008 26.4637 17.9927 25.2146 19.1832 24.2978C20.3738 23.3811 21.8094 22.838 23.3086 22.7372C23.4119 22.7392 23.5137 22.7118 23.6021 22.6583C23.6905 22.6049 23.762 22.5274 23.8082 22.435C24.4953 20.4457 25.8434 18.7519 27.6278 17.6361C29.4123 16.5203 31.5253 16.0497 33.6146 16.303C35.7039 16.5562 37.6434 17.5179 39.1096 19.0277C40.5758 20.5376 41.4802 22.5044 41.6721 24.6002C41.6894 24.7101 41.7371 24.8129 41.8098 24.897C41.8826 24.9811 41.9775 25.0432 42.0837 25.0761C43.5443 25.4193 44.8411 26.2576 45.7536 27.4486C46.6662 28.6395 47.1384 30.1097 47.0899 31.6093C47.0414 33.1089 46.4752 34.5454 45.4876 35.6749C44.5 36.8044 43.1518 37.5572 41.6721 37.8054" stroke="#1BD1C2" stroke-width="2.37931" stroke-linecap="round" stroke-linejoin="round"/>
<path d="M25.7736 41.4011C25.0646 41.2774 25.0646 40.2591 25.7736 40.1353C27.029 39.9157 28.1907 39.3277 29.1109 38.446C30.0311 37.5643 30.6683 36.4288 30.9415 35.184L30.989 34.9865C31.1437 34.2846 32.1406 34.2799 32.3 34.9794L32.3524 35.2078C32.6347 36.4486 33.2779 37.5781 34.2009 38.4541C35.1239 39.3301 36.2854 39.9134 37.5393 40.1306C38.2507 40.2543 38.2507 41.2774 37.5393 41.4011C36.2854 41.6183 35.1239 42.2016 34.2009 43.0776C33.2779 43.9536 32.6347 45.0831 32.3524 46.3239L32.3 46.5523C32.1406 47.2519 31.1437 47.2471 30.9914 46.5452L30.9462 46.3501C30.6729 45.1049 30.0354 43.9692 29.1147 43.0875C28.194 42.2058 27.0318 41.6179 25.776 41.3987L25.7736 41.4011Z" stroke="#1BD1C2" stroke-width="2.37931" stroke-linecap="round" stroke-linejoin="round"/>
</g>
<defs>
<clipPath id="clip0_43_3">
<rect width="33.3103" height="33.3103" fill="white" transform="translate(15 15)"/>
</clipPath>
</defs>
</svg>
