<svg width="64" height="64" viewBox="0 0 64 64" fill="none" xmlns="http://www.w3.org/2000/svg">
<rect width="64" height="64" rx="10" fill="#152232"/>
<rect x="0.5" y="0.5" width="63" height="63" rx="9.5" stroke="#848EA0" stroke-opacity="0.2"/>
<g clip-path="url(#clip0_43_4)">
<path d="M21.5907 34.7146C22.3666 33.6754 23.3744 32.8319 24.5339 32.2511C25.6935 31.6703 26.9726 31.3683 28.2694 31.3693C30.2157 31.3693 32.0049 32.0355 33.423 33.1537" stroke="#1BD1C2" stroke-width="2.37931" stroke-linecap="round" stroke-linejoin="round"/>
<path d="M27.0774 40.2893H18.7498C18.1188 40.2893 17.5136 40.0386 17.0674 39.5924C16.6212 39.1462 16.3705 38.541 16.3705 37.91V18.8755C16.3705 18.2445 16.6212 17.6393 17.0674 17.1931C17.5136 16.7469 18.1188 16.4962 18.7498 16.4962H37.7843C38.4153 16.4962 39.0205 16.7469 39.4667 17.1931C39.9129 17.6393 40.1636 18.2445 40.1636 18.8755V26.0135" stroke="#1BD1C2" stroke-width="2.37931" stroke-linecap="round" stroke-linejoin="round"/>
<path d="M28.267 27.798C28.7357 27.798 29.1998 27.7057 29.6328 27.5263C30.0658 27.3469 30.4593 27.084 30.7907 26.7526C31.1221 26.4212 31.385 26.0278 31.5643 25.5948C31.7437 25.1618 31.836 24.6977 31.836 24.229C31.836 23.7603 31.7437 23.2962 31.5643 22.8632C31.385 22.4302 31.1221 22.0368 30.7907 21.7054C30.4593 21.374 30.0658 21.1111 29.6328 20.9317C29.1998 20.7523 28.7357 20.66 28.267 20.66C27.3205 20.66 26.4127 21.036 25.7434 21.7054C25.0741 22.3747 24.6981 23.2825 24.6981 24.229C24.6981 25.1755 25.0741 26.0833 25.7434 26.7526C26.4127 27.422 27.3205 27.798 28.267 27.798ZM32.4641 40.1323C31.629 39.9872 31.629 38.788 32.4641 38.6429C33.9423 38.3843 35.3103 37.692 36.394 36.654C37.4777 35.616 38.2284 34.2792 38.5504 32.8136L38.6004 32.5828C38.7812 31.7571 39.9566 31.7524 40.1445 32.5756L40.2064 32.8445C40.5387 34.3045 41.2955 35.6336 42.3815 36.6645C43.4674 37.6954 44.834 38.3821 46.3093 38.6381C47.1492 38.7856 47.1492 39.9896 46.3093 40.1371C44.834 40.3931 43.4674 41.0798 42.3815 42.1107C41.2955 43.1416 40.5387 44.4707 40.2064 45.9307L40.1445 46.1996C39.9566 47.0228 38.7812 47.018 38.6004 46.1924L38.5504 45.9616C38.2284 44.4959 37.4777 43.1591 36.394 42.1211C35.3103 41.0832 33.9423 40.3909 32.4641 40.1323Z" stroke="#1BD1C2" stroke-width="2.37931" stroke-linecap="round" stroke-linejoin="round"/>
</g>
<defs>
<clipPath id="clip0_43_4">
<rect width="33.3103" height="33.3103" fill="white" transform="translate(15 15)"/>
</clipPath>
</defs>
</svg>
