<svg width="114" height="138" viewBox="0 0 114 138" fill="none" xmlns="http://www.w3.org/2000/svg">
<g filter="url(#filter0_dddd_47_7)">
<circle cx="57" cy="57" r="36" fill="url(#paint0_linear_47_7)"/>
</g>
<circle cx="57" cy="57" r="45.5" stroke="url(#paint1_linear_47_7)" stroke-opacity="0.3"/>
<circle cx="57" cy="57" r="56.5" transform="rotate(90 57 57)" stroke="url(#paint2_linear_47_7)" stroke-opacity="0.3"/>
<g clip-path="url(#clip0_47_7)">
<path d="M50.9123 45.2914L51.0712 45.895C51.1523 46.2079 51.317 46.4934 51.5482 46.7218C51.7793 46.9501 52.0684 47.1129 52.3851 47.1929L52.9962 47.3499L52.3851 47.5034C52.0682 47.5841 51.7789 47.7475 51.5478 47.9764C51.3166 48.2054 51.152 48.4915 51.0712 48.8049L50.9123 49.4085L50.7533 48.8049C50.6725 48.4915 50.5079 48.2054 50.2768 47.9764C50.0456 47.7475 49.7564 47.5841 49.4394 47.5034L48.8284 47.3499L49.4394 47.1929C49.7561 47.1129 50.0452 46.9501 50.2764 46.7218C50.5076 46.4934 50.6723 46.2079 50.7533 45.895L50.9123 45.2914Z" fill="white"/>
<path d="M49.2769 45.0611L49.3299 45.267C49.358 45.3717 49.4137 45.4672 49.4912 45.5438C49.5688 45.6203 49.6654 45.6753 49.7714 45.7031L49.9798 45.7554L49.7714 45.8078C49.6654 45.8355 49.5688 45.8905 49.4912 45.9671C49.4137 46.0437 49.358 46.1392 49.3299 46.2439L49.2769 46.4463L49.231 46.2334C49.2029 46.1287 49.1473 46.0332 49.0697 45.9566C48.9922 45.88 48.8955 45.8251 48.7895 45.7973L48.5847 45.745L48.7895 45.6926C48.8955 45.6649 48.9922 45.6099 49.0697 45.5333C49.1473 45.4567 49.2029 45.3612 49.231 45.2565L49.2769 45.0611Z" fill="white"/>
<path d="M56.2527 58.0195C58.8179 58.0195 60.8974 55.9653 60.8974 53.4314C60.8974 50.8974 58.8179 48.8432 56.2527 48.8432C53.6876 48.8432 51.6081 50.8974 51.6081 53.4314C51.6081 55.9653 53.6876 58.0195 56.2527 58.0195Z" fill="white"/>
<path d="M66.6688 59.621C68.1747 59.621 69.3955 58.415 69.3955 56.9274C69.3955 55.4398 68.1747 54.2338 66.6688 54.2338C65.1628 54.2338 63.942 55.4398 63.942 56.9274C63.942 58.415 65.1628 59.621 66.6688 59.621Z" fill="white"/>
<path d="M45.9286 59.621C47.4345 59.621 48.6553 58.415 48.6553 56.9274C48.6553 55.4398 47.4345 54.2338 45.9286 54.2338C44.4226 54.2338 43.2018 55.4398 43.2018 56.9274C43.2018 58.415 44.4226 59.621 45.9286 59.621Z" fill="white"/>
<path d="M63.331 66.3688V72.998H49.669V66.3688C49.669 64.5792 50.3887 62.8628 51.6698 61.5974C52.9508 60.3319 54.6883 59.621 56.5 59.621C57.3966 59.6184 58.2849 59.7906 59.114 60.1277C59.9431 60.4648 60.6968 60.9601 61.3318 61.5853C61.9686 62.2126 62.4731 62.9583 62.8162 63.7793C63.1594 64.6004 63.3343 65.4805 63.331 66.3688Z" fill="white"/>
<path d="M70.6282 67.6667C70.2455 68.1314 69.8387 68.5763 69.4097 68.9996C68.1374 70.2571 66.6842 71.3223 65.097 72.1607V66.3723C65.0964 64.9486 64.7319 63.5481 64.0374 62.3006C65.8118 62.3231 67.5068 63.0306 68.7598 64.2719C69.1213 64.6192 69.4424 65.0054 69.7169 65.4233C70.1557 66.1104 70.4645 66.8706 70.6282 67.6667Z" fill="white"/>
<path d="M48.952 62.3075C48.2594 63.5533 47.895 64.9511 47.8924 66.3723V72.1572C46.3059 71.3208 44.8538 70.2567 43.5833 68.9996C43.0351 68.4574 42.522 67.8817 42.0469 67.276C42.2584 66.5023 42.6103 65.7729 43.0853 65.1232C43.7151 64.2476 44.5484 63.534 45.5151 63.0422C46.4818 62.5505 47.5538 62.295 48.6412 62.2971C48.7507 62.2831 48.8531 62.3006 48.952 62.3075Z" fill="white"/>
<path d="M68.7703 44.14L69.4096 43.5085C67.7173 41.8286 65.7056 40.4956 63.4902 39.5861C61.2747 38.6766 58.8992 38.2084 56.5 38.2086C54.0994 38.2054 51.722 38.6714 49.5045 39.5798C47.2871 40.4882 45.2735 41.821 43.5798 43.5015C41.8825 45.174 40.5364 47.1613 39.6187 49.3491C38.701 51.537 38.2299 53.8823 38.2323 56.2505C38.2264 60.242 39.5674 64.1216 42.0433 67.276C42.5194 67.8799 43.0325 68.4543 43.5798 68.9961C44.8502 70.2532 46.3024 71.3173 47.8889 72.1537C48.4627 72.4571 49.0522 72.7308 49.6549 72.9736H49.6832H49.7291L50.0152 72.1293L49.6796 72.9562C51.8443 73.8161 54.1562 74.2568 56.4894 74.2541C58.8237 74.2565 61.1367 73.8158 63.3027 72.9562C63.906 72.716 64.4956 72.4435 65.0687 72.1397C66.6559 71.3013 68.1091 70.2362 69.3814 68.9786C69.8116 68.5541 70.2195 68.1081 70.6035 67.6423C73.2773 64.4247 74.7356 60.389 74.7289 56.2261C74.7312 53.8582 74.2603 51.5132 73.3433 49.3254C72.4262 47.1377 71.0811 45.1502 69.3849 43.4771L68.7456 44.1086L68.1063 44.7401C69.6348 46.2472 70.847 48.0377 71.6731 50.0088C72.4993 51.9799 72.9232 54.0927 72.9205 56.2261C72.928 59.9768 71.6143 63.6132 69.2048 66.5119C68.8615 66.9296 68.496 67.3291 68.1098 67.7086C66.9638 68.8424 65.6546 69.8029 64.2246 70.5592C63.7155 70.8417 63.1908 71.0956 62.6528 71.3198C60.7013 72.0941 58.6173 72.491 56.5141 72.4886C54.4121 72.4913 52.3292 72.0945 50.379 71.3198H50.3542H50.3083L50.0222 72.1676L50.3754 71.3407C49.8329 71.1217 49.3024 70.8748 48.786 70.601C47.3558 69.8481 46.0465 68.8898 44.9008 67.7575C44.4061 67.2697 43.9436 66.7511 43.5162 66.2048C41.269 63.3615 40.0482 59.8578 40.0477 56.2505C40.0447 54.1168 40.4688 52.0036 41.2956 50.0323C42.1224 48.0611 43.3356 46.2709 44.8654 44.7645C46.3903 43.2533 48.2027 42.0549 50.1982 41.2382C52.1937 40.4214 54.3329 40.0025 56.4929 40.0054C58.6534 40.003 60.7931 40.4221 62.7891 41.2388C64.7851 42.0555 66.5981 43.2537 68.124 44.7645L68.7703 44.14Z" fill="white"/>
<path d="M40.5528 68.375C40.612 68.3194 40.6484 68.2441 40.6549 68.1636C40.6614 68.0832 40.6376 68.0031 40.5881 67.9389C38.0378 64.5635 36.6635 60.4625 36.6711 56.2505C36.6677 53.6772 37.1789 51.1285 38.1753 48.7508C39.1718 46.3731 40.634 44.2134 42.4778 42.3955L42.5061 42.371C44.3443 40.5572 46.5263 39.1188 48.9275 38.1382C51.3286 37.1576 53.9018 36.6539 56.5 36.6559C59.1053 36.653 61.6856 37.1585 64.0925 38.1435C66.4995 39.1284 68.6858 40.5734 70.5258 42.3955C72.3692 44.2129 73.8311 46.3722 74.8275 48.7492C75.824 51.1262 76.3354 53.6743 76.3325 56.247C76.3366 60.7729 74.747 65.1592 71.8362 68.6542C71.4194 69.1566 70.9779 69.6416 70.5117 70.1021C69.1303 71.4667 67.5534 72.6235 65.8317 73.5354C65.2086 73.8638 64.5684 74.1596 63.9138 74.4216H63.8926C61.535 75.3589 59.0167 75.8387 56.4753 75.8346C53.9422 75.8416 51.4313 75.3678 49.0792 74.439C48.4302 74.1788 47.7958 73.8841 47.179 73.5563C46.6739 73.2911 46.1864 73.005 45.7096 72.698C45.6447 72.6601 45.5693 72.6438 45.4943 72.6513C45.4193 72.6588 45.3487 72.6899 45.2928 72.7398C45.2599 72.7758 45.2349 72.8181 45.2195 72.8641C45.204 72.9101 45.1984 72.9588 45.2031 73.0071C45.2077 73.0553 45.2225 73.1021 45.2465 73.1444C45.2705 73.1867 45.3031 73.2236 45.3423 73.2527C45.8332 73.5702 46.3419 73.8633 46.8611 74.139C47.5048 74.4824 48.1675 74.7899 48.8461 75.0601H48.8708C51.2961 76.0228 53.8862 76.5156 56.5 76.5115C59.1224 76.5149 61.721 76.0198 64.154 75.0531H64.1716C64.8492 74.7832 65.5117 74.478 66.1566 74.139C67.9389 73.1983 69.5707 72.0026 70.9991 70.5906C71.4794 70.1161 71.9386 69.6137 72.3695 69.0938C75.3681 65.4829 77.0047 60.9558 77 56.2854C77.0014 53.628 76.4717 50.9964 75.4413 48.5416C74.4109 46.0868 72.9001 43.857 70.9955 41.9803C69.0953 40.0993 66.838 38.6072 64.353 37.5894C61.8681 36.5716 59.2043 36.0481 56.5141 36.0488C53.824 36.0477 51.16 36.571 48.675 37.5888C46.19 38.6067 43.9328 40.099 42.0328 41.9803C40.1613 43.8258 38.6692 46.0118 37.6389 48.4176C36.5725 50.9116 36.0248 53.592 36.0283 56.2994C36.0241 60.6342 37.4335 64.855 40.0477 68.3367C40.0779 68.372 40.1149 68.401 40.1566 68.4221C40.1982 68.4432 40.2437 68.4559 40.2904 68.4595C40.3371 68.4631 40.384 68.4574 40.4284 68.4429C40.4729 68.4284 40.514 68.4054 40.5493 68.375H40.5528Z" fill="white"/>
<path d="M36.8089 74.5483L43.4398 67.9981L45.4953 70.0285L38.8543 76.5886C38.7195 76.7218 38.5595 76.8274 38.3834 76.8995C38.2073 76.9716 38.0185 77.0087 37.8279 77.0087C37.6372 77.0087 37.4485 76.9716 37.2723 76.8995C37.0962 76.8274 36.9362 76.7218 36.8014 76.5886C36.6652 76.4548 36.5572 76.2955 36.4838 76.1202C36.4104 75.9448 36.373 75.7567 36.3736 75.5669C36.3743 75.3771 36.4132 75.1894 36.4879 75.0145C36.5626 74.8397 36.6717 74.6812 36.8089 74.5483Z" fill="white"/>
<path d="M36.8089 74.5483L43.4398 67.9981L45.4953 70.0285L38.8543 76.5886C38.7195 76.7218 38.5595 76.8274 38.3834 76.8995C38.2073 76.9716 38.0185 77.0087 37.8279 77.0087C37.6372 77.0087 37.4485 76.9716 37.2723 76.8995C37.0962 76.8274 36.9362 76.7218 36.8014 76.5886C36.6652 76.4548 36.5572 76.2955 36.4838 76.1202C36.4104 75.9448 36.373 75.7567 36.3736 75.5669C36.3743 75.3771 36.4132 75.1894 36.4879 75.0145C36.5626 74.8397 36.6717 74.6812 36.8089 74.5483Z" fill="white"/>
</g>
<defs>
<filter id="filter0_dddd_47_7" x="8" y="19" width="98" height="119" filterUnits="userSpaceOnUse" color-interpolation-filters="sRGB">
<feFlood flood-opacity="0" result="BackgroundImageFix"/>
<feColorMatrix in="SourceAlpha" type="matrix" values="0 0 0 0 0 0 0 0 0 0 0 0 0 0 0 0 0 0 127 0" result="hardAlpha"/>
<feOffset dy="2"/>
<feGaussianBlur stdDeviation="2"/>
<feColorMatrix type="matrix" values="0 0 0 0 0 0 0 0 0 0 0 0 0 0 0 0 0 0 0.1 0"/>
<feBlend mode="normal" in2="BackgroundImageFix" result="effect1_dropShadow_47_7"/>
<feColorMatrix in="SourceAlpha" type="matrix" values="0 0 0 0 0 0 0 0 0 0 0 0 0 0 0 0 0 0 127 0" result="hardAlpha"/>
<feOffset dy="8"/>
<feGaussianBlur stdDeviation="4"/>
<feColorMatrix type="matrix" values="0 0 0 0 0 0 0 0 0 0 0 0 0 0 0 0 0 0 0.09 0"/>
<feBlend mode="normal" in2="effect1_dropShadow_47_7" result="effect2_dropShadow_47_7"/>
<feColorMatrix in="SourceAlpha" type="matrix" values="0 0 0 0 0 0 0 0 0 0 0 0 0 0 0 0 0 0 127 0" result="hardAlpha"/>
<feOffset dy="18"/>
<feGaussianBlur stdDeviation="5.5"/>
<feColorMatrix type="matrix" values="0 0 0 0 0 0 0 0 0 0 0 0 0 0 0 0 0 0 0.05 0"/>
<feBlend mode="normal" in2="effect2_dropShadow_47_7" result="effect3_dropShadow_47_7"/>
<feColorMatrix in="SourceAlpha" type="matrix" values="0 0 0 0 0 0 0 0 0 0 0 0 0 0 0 0 0 0 127 0" result="hardAlpha"/>
<feOffset dy="32"/>
<feGaussianBlur stdDeviation="6.5"/>
<feColorMatrix type="matrix" values="0 0 0 0 0 0 0 0 0 0 0 0 0 0 0 0 0 0 0.01 0"/>
<feBlend mode="normal" in2="effect3_dropShadow_47_7" result="effect4_dropShadow_47_7"/>
<feBlend mode="normal" in="SourceGraphic" in2="effect4_dropShadow_47_7" result="shape"/>
</filter>
<linearGradient id="paint0_linear_47_7" x1="51.3038" y1="41.7247" x2="97.9192" y2="88.0649" gradientUnits="userSpaceOnUse">
<stop stop-color="#1F67E7"/>
<stop offset="1" stop-color="#1AD7BE"/>
</linearGradient>
<linearGradient id="paint1_linear_47_7" x1="18" y1="25" x2="87.5" y2="93.5" gradientUnits="userSpaceOnUse">
<stop stop-color="#848EA0" stop-opacity="0"/>
<stop offset="0.5" stop-color="#848EA0" stop-opacity="0.6"/>
<stop offset="1" stop-color="#848EA0" stop-opacity="0.1"/>
</linearGradient>
<linearGradient id="paint2_linear_47_7" x1="8.67391" y1="17.3478" x2="94.7935" y2="102.228" gradientUnits="userSpaceOnUse">
<stop stop-color="#848EA0" stop-opacity="0"/>
<stop offset="0.5" stop-color="#848EA0" stop-opacity="0.6"/>
<stop offset="1" stop-color="#848EA0" stop-opacity="0.1"/>
</linearGradient>
<clipPath id="clip0_47_7">
<rect width="41" height="41" fill="white" transform="translate(36 36)"/>
</clipPath>
</defs>
</svg>
