<svg width="35" height="35" viewBox="0 0 35 35" fill="none" xmlns="http://www.w3.org/2000/svg">
<path d="M12.725 7.9375L12.8576 8.45278C12.927 8.71972 13.0677 8.96335 13.2649 9.15824C13.462 9.35313 13.7085 9.49215 13.9786 9.56077L14.5029 9.6948L13.9786 9.82883C13.7085 9.89745 13.462 10.0365 13.2649 10.2314C13.0677 10.4262 12.927 10.6699 12.8576 10.9368L12.725 11.4521L12.5894 10.9368C12.52 10.6699 12.3794 10.4262 12.1822 10.2314C11.985 10.0365 11.7386 9.89745 11.4685 9.82883L10.9472 9.6948L11.4685 9.56077C11.7386 9.49215 11.985 9.35313 12.1822 9.15824C12.3794 8.96335 12.52 8.71972 12.5894 8.45278L12.725 7.9375Z" fill="url(#paint0_linear_50_8)"/>
<path d="M11.3299 7.73486L11.3751 7.91059C11.3991 7.99997 11.4466 8.08149 11.5127 8.14688C11.5789 8.21226 11.6613 8.2592 11.7518 8.2829L11.9265 8.32758L11.7518 8.37225C11.6613 8.39596 11.5789 8.44289 11.5127 8.50828C11.4466 8.57366 11.3991 8.65518 11.3751 8.74456L11.3299 8.91732L11.2847 8.74456C11.2607 8.65518 11.2132 8.57366 11.1471 8.50828C11.0809 8.44289 10.9985 8.39596 10.908 8.37225L10.7303 8.32758L10.908 8.2829C10.9985 8.2592 11.0809 8.21226 11.1471 8.14688C11.2132 8.08149 11.2607 7.99997 11.2847 7.91059L11.3299 7.73486Z" fill="url(#paint1_linear_50_8)"/>
<path d="M17.2781 18.7972C19.4665 18.7972 21.2405 17.0437 21.2405 14.8806C21.2405 12.7174 19.4665 10.9639 17.2781 10.9639C15.0897 10.9639 13.3156 12.7174 13.3156 14.8806C13.3156 17.0437 15.0897 18.7972 17.2781 18.7972Z" fill="url(#paint2_linear_50_8)"/>
<path d="M26.1642 20.1642C27.449 20.1642 28.4905 19.1347 28.4905 17.8648C28.4905 16.5949 27.449 15.5654 26.1642 15.5654C24.8795 15.5654 23.838 16.5949 23.838 17.8648C23.838 19.1347 24.8795 20.1642 26.1642 20.1642Z" fill="#1E3947"/>
<path d="M8.4703 20.1642C9.75505 20.1642 10.7965 19.1347 10.7965 17.8648C10.7965 16.5949 9.75505 15.5654 8.4703 15.5654C7.18555 15.5654 6.14406 16.5949 6.14406 17.8648C6.14406 19.1347 7.18555 20.1642 8.4703 20.1642Z" fill="#1E3947"/>
<path d="M23.3197 25.9244V31.5835H11.6644V25.9244C11.6644 24.3967 12.2784 22.9315 13.3712 21.8512C14.4641 20.771 15.9464 20.1641 17.492 20.1641C18.2578 20.1634 19.0161 20.3123 19.7235 20.6021C20.4309 20.8919 21.0734 21.317 21.6142 21.8529C22.156 22.3869 22.5856 23.0216 22.8783 23.7203C23.171 24.4191 23.321 25.1681 23.3197 25.9244Z" fill="url(#paint3_linear_50_8)"/>
<path d="M29.5451 27.0325C29.2186 27.4292 28.8716 27.809 28.5055 28.1703C27.4203 29.2449 26.1806 30.1552 24.8263 30.8718V25.9275C24.8258 24.7122 24.5149 23.5166 23.9223 22.4517C25.4361 22.4709 26.8821 23.0749 27.9511 24.1345C28.252 24.4312 28.5188 24.7598 28.7466 25.1144C29.1286 25.7004 29.3993 26.3505 29.5451 27.0325Z" fill="#1E3947"/>
<path d="M11.0527 22.4577C10.4618 23.5211 10.1509 24.7144 10.1487 25.9276V30.8719C8.79524 30.1579 7.55637 29.2496 6.4725 28.1764C6.00784 27.7123 5.57308 27.2199 5.17077 26.702C5.35126 26.0416 5.65142 25.4189 6.05667 24.8643C6.59513 24.1142 7.30824 23.5032 8.13582 23.0828C8.96339 22.6624 9.88115 22.4449 10.8116 22.4488C10.8809 22.4488 10.9683 22.4518 11.0527 22.4577Z" fill="#1E3947"/>
<path d="M27.9601 6.94305L28.5055 6.40395C27.0599 4.97339 25.343 3.83874 23.4532 3.06495C21.5633 2.29116 19.5376 1.89343 17.492 1.89454C15.4468 1.89252 13.4212 2.28984 11.5317 3.06369C9.64225 3.83755 7.92601 4.97269 6.48154 6.40395C5.03357 7.83173 3.88516 9.52815 3.10227 11.3958C2.31938 13.2635 1.91741 15.2656 1.91945 17.2873C1.91381 20.6957 3.0579 24.0086 5.17077 26.7022C5.57689 27.2177 6.01463 27.7081 6.48154 28.1706C7.56572 29.2451 8.80448 30.1554 10.1577 30.8721C10.6473 31.131 11.1502 31.3647 11.6644 31.572H11.6855L11.7276 31.5869L11.9717 30.8631L11.6704 31.569C13.5182 32.3032 15.4915 32.6793 17.483 32.677C19.4744 32.6787 21.4476 32.3026 23.2956 31.569C23.8094 31.3632 24.3123 31.1316 24.8022 30.8751C26.1563 30.1594 27.396 29.2501 28.4814 28.1766C28.8475 27.8152 29.1945 27.4354 29.521 27.0388C31.8025 24.2909 33.0476 20.845 33.0435 17.2903C33.0448 15.269 32.6428 13.2673 31.8605 11.3998C31.0782 9.53231 29.9309 7.83563 28.4844 6.40692L27.939 6.94603L27.3936 7.48513C28.6971 8.77206 29.7309 10.3006 30.4357 11.9832C31.1404 13.6657 31.5024 15.4692 31.5007 17.2903C31.5056 20.4918 30.3851 23.5956 28.3308 26.0708C28.037 26.4267 27.7253 26.7677 27.3967 27.0924C26.4193 28.0608 25.3024 28.8808 24.0821 29.5258C23.6403 29.7591 23.1867 29.9699 22.7231 30.1572C21.0615 30.8241 19.2854 31.1679 17.492 31.1699C15.6977 31.1681 13.9206 30.8242 12.258 30.1572H12.2369L12.1947 30.1423L11.9506 30.8721L12.252 30.1662C11.7883 29.981 11.3356 29.7702 10.896 29.5347C9.67531 28.8928 8.55819 28.0746 7.58139 27.1073C7.15836 26.691 6.76281 26.2483 6.39717 25.7819C4.49584 23.3549 3.46543 20.3717 3.46827 17.3022C3.46719 15.4809 3.82967 13.6774 4.53496 11.9948C5.24024 10.3123 6.27447 8.78383 7.57837 7.49704L7.59947 7.47917L7.58139 7.49704C8.88221 6.20687 10.4283 5.18373 12.1308 4.48649C13.8332 3.78926 15.6583 3.43171 17.5011 3.43441C19.3442 3.4323 21.1696 3.7901 22.8724 4.48729C24.5753 5.18448 26.122 6.20731 27.4238 7.49704L27.9601 6.94305Z" fill="#1E3947"/>
<path d="M3.88109 27.637C3.92832 27.5877 3.95705 27.5239 3.96253 27.4561C3.96801 27.3884 3.94991 27.3209 3.91122 27.2647C1.73341 24.3841 0.559757 20.8829 0.566496 17.2869C0.563955 15.0906 1.00026 12.9154 1.85037 10.8863C2.70048 8.85709 3.94766 7.01385 5.52031 5.46233L5.54442 5.44148C7.11268 3.89306 8.97421 2.66522 11.0227 1.82812C13.0711 0.991007 15.2664 0.561025 17.483 0.562748C19.7056 0.560234 21.9069 0.991787 23.9603 1.83261C26.0138 2.67343 27.8789 3.90695 29.4487 5.46233C31.0213 7.01385 32.2685 8.85709 33.1186 10.8863C33.9687 12.9154 34.405 15.0906 34.4025 17.2869C34.4087 21.1479 33.057 24.891 30.5787 27.8753C30.2231 28.3042 29.8464 28.7182 29.4487 29.1114C28.2693 30.2765 26.923 31.264 25.4531 32.0422C24.9215 32.3226 24.3753 32.5751 23.8169 32.7987H23.7988C21.7875 33.5989 19.639 34.0085 17.4709 34.005C15.3099 34.0109 13.1678 33.6065 11.1612 32.8136C10.6075 32.5914 10.0663 32.3399 9.54001 32.0601C9.11213 31.8337 8.69429 31.5905 8.28649 31.3303C8.23243 31.2946 8.16758 31.2784 8.10283 31.2844C8.03808 31.2903 7.97738 31.3181 7.93093 31.3631C7.903 31.394 7.88189 31.4303 7.86895 31.4697C7.85601 31.5091 7.85152 31.5507 7.85577 31.5919C7.86003 31.6331 7.87293 31.673 7.89365 31.709C7.91437 31.745 7.94246 31.7763 7.97613 31.8009C8.39497 32.072 8.82888 32.3252 9.26882 32.5575C9.818 32.8507 10.3834 33.1132 10.9623 33.3438H10.9834C13.0524 34.1656 15.2622 34.5863 17.492 34.5828C19.7293 34.5857 21.9462 34.163 24.0218 33.3378C24.5998 33.1074 25.1651 32.8469 25.7152 32.5575C27.2358 31.7544 28.6279 30.7337 29.8464 29.5284C30.2562 29.1233 30.648 28.6944 31.0156 28.2506C33.5737 25.1682 34.97 21.3035 34.966 17.3166C34.9672 15.0481 34.5153 12.8016 33.6362 10.7061C32.7572 8.61049 31.4683 6.70706 29.8434 5.10491C28.2205 3.49745 26.2923 2.22268 24.1696 1.35376C22.0469 0.484838 19.7715 0.0388861 17.474 0.0415155C15.1789 0.0405212 12.9062 0.487275 10.7862 1.35616C8.66619 2.22504 6.74051 3.49897 5.11955 5.10491C3.5285 6.6683 2.25686 8.51986 1.37405 10.5585C0.464306 12.6875 -0.00297516 14.9757 7.7394e-07 17.2869C-0.00196702 21.0019 1.21148 24.6179 3.45923 27.5953C3.48499 27.6255 3.51655 27.6503 3.55209 27.6683C3.58763 27.6863 3.62643 27.6972 3.66624 27.7002C3.70606 27.7033 3.74608 27.6985 3.784 27.6861C3.82192 27.6737 3.85697 27.654 3.88712 27.6281L3.88109 27.637Z" fill="url(#paint4_linear_50_8)"/>
<path d="M0.682464 32.9161L6.3544 27.3097L8.10797 29.043L2.43604 34.6494C2.20378 34.879 1.88877 35.008 1.56031 35.008C1.23186 35.008 0.916848 34.879 0.684593 34.6494C0.569133 34.5359 0.477474 34.4009 0.414864 34.2523C0.352255 34.1036 0.319927 33.9442 0.319729 33.7832C0.319531 33.6222 0.351468 33.4628 0.413712 33.314C0.475956 33.1652 0.567283 33.03 0.682464 32.9161Z" fill="#0B1928"/>
<path d="M0.682464 32.9161L6.3544 27.3097L8.10797 29.043L2.43604 34.6494C2.20378 34.879 1.88877 35.008 1.56031 35.008C1.23186 35.008 0.916848 34.879 0.684593 34.6494C0.569133 34.5359 0.477474 34.4009 0.414864 34.2523C0.352255 34.1036 0.319927 33.9442 0.319729 33.7832C0.319531 33.6222 0.351468 33.4628 0.413712 33.314C0.475956 33.1652 0.567283 33.03 0.682464 32.9161Z" fill="#1E3947"/>
<defs>
<linearGradient id="paint0_linear_50_8" x1="10.9472" y1="9.68884" x2="14.5029" y2="9.68884" gradientUnits="userSpaceOnUse">
<stop stop-color="#2974E9"/>
<stop offset="1" stop-color="#1AD7BE"/>
</linearGradient>
<linearGradient id="paint1_linear_50_8" x1="10.7303" y1="8.32758" x2="11.9265" y2="8.32758" gradientUnits="userSpaceOnUse">
<stop stop-color="#2974E9"/>
<stop offset="1" stop-color="#1AD7BE"/>
</linearGradient>
<linearGradient id="paint2_linear_50_8" x1="13.3156" y1="14.8806" x2="21.2405" y2="14.8806" gradientUnits="userSpaceOnUse">
<stop stop-color="#2974E9"/>
<stop offset="1" stop-color="#1AD7BE"/>
</linearGradient>
<linearGradient id="paint3_linear_50_8" x1="11.6644" y1="25.8678" x2="23.3197" y2="25.8678" gradientUnits="userSpaceOnUse">
<stop stop-color="#2974E9"/>
<stop offset="1" stop-color="#1AD7BE"/>
</linearGradient>
<linearGradient id="paint4_linear_50_8" x1="7.73951e-07" y1="17.2869" x2="34.978" y2="17.2869" gradientUnits="userSpaceOnUse">
<stop stop-color="#2974E9"/>
<stop offset="1" stop-color="#1AD7BE"/>
</linearGradient>
</defs>
</svg>
