<svg width="17" height="19" viewBox="0 0 17 19" fill="none" xmlns="http://www.w3.org/2000/svg">
<g clip-path="url(#clip0_24_606)">
<path d="M8.44799 5.23241C6.05037 5.23241 4.11644 7.13613 4.11644 9.49628C4.11644 11.8564 6.05037 13.7601 8.44799 13.7601C10.8456 13.7601 12.7795 11.8564 12.7795 9.49628C12.7795 7.13613 10.8456 5.23241 8.44799 5.23241ZM8.44799 12.2683C6.89859 12.2683 5.63192 11.0252 5.63192 9.49628C5.63192 7.96737 6.89482 6.72421 8.44799 6.72421C10.0012 6.72421 11.2641 7.96737 11.2641 9.49628C11.2641 11.0252 9.9974 12.2683 8.44799 12.2683ZM13.967 5.058C13.967 5.61093 13.5147 6.05253 12.9567 6.05253C12.395 6.05253 11.9464 5.60722 11.9464 5.058C11.9464 4.50878 12.3988 4.06347 12.9567 4.06347C13.5147 4.06347 13.967 4.50878 13.967 5.058ZM16.8359 6.06738C16.7718 4.73515 16.4627 3.55507 15.4712 2.58281C14.4835 1.61054 13.2847 1.30624 11.9313 1.23945C10.5365 1.16152 6.35573 1.16152 4.96089 1.23945C3.61129 1.30253 2.41248 1.60683 1.42101 2.5791C0.429538 3.55136 0.12418 4.73144 0.0563233 6.06366C-0.0228434 7.43671 -0.0228434 11.5521 0.0563233 12.9252C0.120411 14.2574 0.429538 15.4375 1.42101 16.4098C2.41248 17.382 3.60752 17.6863 4.96089 17.7531C6.35573 17.831 10.5365 17.831 11.9313 17.7531C13.2847 17.69 14.4835 17.3857 15.4712 16.4098C16.4589 15.4375 16.768 14.2574 16.8359 12.9252C16.9151 11.5521 16.9151 7.44042 16.8359 6.06738ZM15.0339 14.3984C14.7399 15.1258 14.1706 15.6861 13.428 15.9793C12.3159 16.4135 9.67696 16.3133 8.44799 16.3133C7.21903 16.3133 4.57636 16.4098 3.46803 15.9793C2.72914 15.6898 2.1599 15.1295 1.86208 14.3984C1.42101 13.3037 1.52279 10.706 1.52279 9.49628C1.52279 8.28652 1.42478 5.68515 1.86208 4.59413C2.15613 3.86679 2.72537 3.30644 3.46803 3.01327C4.58013 2.57909 7.21903 2.67929 8.44799 2.67929C9.67696 2.67929 12.3196 2.58281 13.428 3.01327C14.1668 3.30273 14.7361 3.86308 15.0339 4.59413C15.475 5.68886 15.3732 8.28652 15.3732 9.49628C15.3732 10.706 15.475 13.3074 15.0339 14.3984Z" fill="#3E4757"/>
</g>
<defs>
<clipPath id="clip0_24_606">
<rect width="16.8889" height="19" fill="white"/>
</clipPath>
</defs>
</svg>
