<svg width="20" height="19" viewBox="0 0 20 19" fill="none" xmlns="http://www.w3.org/2000/svg">
<path fill-rule="evenodd" clip-rule="evenodd" d="M4.84701 0.989594C4.26961 0.989594 3.71586 1.21896 3.30757 1.62725C2.89929 2.03553 2.66992 2.58928 2.66992 3.16668C2.66992 3.74408 2.89929 4.29783 3.30757 4.70611C3.71586 5.11439 4.26961 5.34376 4.84701 5.34376C5.4244 5.34376 5.97815 5.11439 6.38644 4.70611C6.79472 4.29783 7.02409 3.74408 7.02409 3.16668C7.02409 2.58928 6.79472 2.03553 6.38644 1.62725C5.97815 1.21896 5.4244 0.989594 4.84701 0.989594ZM3.85742 3.16668C3.85742 2.90422 3.96168 2.65252 4.14726 2.46694C4.33285 2.28135 4.58455 2.17709 4.84701 2.17709C5.10946 2.17709 5.36116 2.28135 5.54675 2.46694C5.73233 2.65252 5.83659 2.90422 5.83659 3.16668C5.83659 3.42913 5.73233 3.68084 5.54675 3.86642C5.36116 4.052 5.10946 4.15626 4.84701 4.15626C4.58455 4.15626 4.33285 4.052 4.14726 3.86642C3.96168 3.68084 3.85742 3.42913 3.85742 3.16668ZM2.66992 6.33334C2.66992 6.17587 2.73248 6.02485 2.84383 5.9135C2.95518 5.80215 3.1062 5.73959 3.26367 5.73959H6.43034C6.58781 5.73959 6.73883 5.80215 6.85018 5.9135C6.96153 6.02485 7.02409 6.17587 7.02409 6.33334V16.625C7.02409 16.7825 6.96153 16.9335 6.85018 17.0449C6.73883 17.1562 6.58781 17.2188 6.43034 17.2188H3.26367C3.1062 17.2188 2.95518 17.1562 2.84383 17.0449C2.73248 16.9335 2.66992 16.7825 2.66992 16.625V6.33334ZM3.85742 6.92709V16.0313H5.83659V6.92709H3.85742ZM8.21159 6.33334C8.21159 6.17587 8.27415 6.02485 8.3855 5.9135C8.49684 5.80215 8.64787 5.73959 8.80534 5.73959H11.972C12.1295 5.73959 12.2805 5.80215 12.3919 5.9135C12.5032 6.02485 12.5658 6.17587 12.5658 6.33334V6.67693L12.9101 6.52889C13.5039 6.27524 14.1338 6.11629 14.7769 6.05784C16.9738 5.85834 18.8991 7.58418 18.8991 9.80085V16.625C18.8991 16.7825 18.8365 16.9335 18.7252 17.0449C18.6138 17.1562 18.4628 17.2188 18.3053 17.2188H15.1387C14.9812 17.2188 14.8302 17.1562 14.7188 17.0449C14.6075 16.9335 14.5449 16.7825 14.5449 16.625V11.0833C14.5449 10.8209 14.4407 10.5692 14.2551 10.3836C14.0695 10.198 13.8178 10.0938 13.5553 10.0938C13.2929 10.0938 13.0412 10.198 12.8556 10.3836C12.67 10.5692 12.5658 10.8209 12.5658 11.0833V16.625C12.5658 16.7825 12.5032 16.9335 12.3919 17.0449C12.2805 17.1562 12.1295 17.2188 11.972 17.2188H8.80534C8.64787 17.2188 8.49684 17.1562 8.3855 17.0449C8.27415 16.9335 8.21159 16.7825 8.21159 16.625V6.33334ZM9.39909 6.92709V16.0313H11.3783V11.0833C11.3783 10.5059 11.6076 9.9522 12.0159 9.54391C12.4242 9.13563 12.9779 8.90626 13.5553 8.90626C14.1327 8.90626 14.6865 9.13563 15.0948 9.54391C15.5031 9.9522 15.7324 10.5059 15.7324 11.0833V16.0313H17.7116V9.80085C17.7116 8.29351 16.3966 7.10284 14.8853 7.24059C14.3661 7.2877 13.8575 7.41593 13.378 7.62059L12.2063 8.1233C12.116 8.16212 12.0174 8.17788 11.9194 8.16917C11.8214 8.16045 11.7272 8.12754 11.6451 8.07338C11.563 8.01922 11.4956 7.94551 11.449 7.85888C11.4025 7.77225 11.3781 7.67541 11.3783 7.57705V6.92709H9.39909Z" fill="#3E4757"/>
</svg>
